<svg xmlns="http://www.w3.org/2000/svg" width="1024" height="1024" viewBox="164.5 209.5 695.0 408.0"><defs><linearGradient id="a" x1="321" x2="348.1" y1="501.1" y2="367" gradientUnits="userSpaceOnUse"><stop offset="0" stop-color="#072fa1"/><stop offset="1" stop-color="#0f7be7"/></linearGradient></defs><path fill="url(#a)" d="M291.5 245.7c3.3.4 11.5 0 15.1 0H337c5.2 0 12.4-.2 17.5.2l10.7.2 29.3 76.6c1.3 3.6 8.7 21.6 9 24.2 2.5 5.6 4.1 11.6 6.4 17.2 5.2 12.6 9.9 27.5 15.2 39.7l21 55c2.7 2.5 3 5.9 4.5 9 1 2.2 1.5 6.3 2.5 8l.4-.4c.3 0 2.7-3.3 2.7-3.3.5-6-.4-15.3-.3-21.1l1.2-117c0-15.7-.7-31.2.2-46.9.3-5.8-.1-11.7.4-17.8q.2-11.4 0-22.9c5.7-1 144.5-1.3 150 .3l.8.6c.3 4.1.7 11.2.6 15.4 0 5.6.5 34.8-.8 38.2-1.3.9-1.8.7-3.4.7-.6 1.3-1.2 3-2.2 3.7l-.2-3c-4.3-.3-3-.4-6.8.8-16.8 5.3-37.3 4.5-55 6-7.2.7-12.4-.7-19.6 1.5-.8 3.7-.2 6.6-.4 9.8-.4 5.2 0 19.2-1 23.7q27-.1 53.9.2l16.1.2c0 8 .4 20.1-.1 27.7.2 7 .2 15.5 0 22.6-10.7 1.7-26.2.5-37.2.9-1.3 0-2 .4-3 1.1q3 .8 5.8.6v.6c-4 .7-28.6 1.3-32.4.4l.2-.5c2.7-.7 4.3-.5 7-.4l.1-.3c-2.8-1.7-6-1.5-9.3-1.5 0 4-.2 13.6-.5 17.7-.3 6.4.6 28.6-.6 32.9 0 4.3.4 30.3-.4 33-1.5.3-1.5.3-3 .2-.9 2.5-1 2.8-2.7 4.7.8-2.1.8-1.1.5-3.1-3.6-2.5-5.3.4-9 2l-.5.7.6.5c-.7.4-33.3 1.6-37.5 2.5-.8.1-8.1-1-9.5-1.1q-8-1.2-16-.2a144 144 0 0 1-53.4.8c-1.8-.4-5.6-3.2-6.7-4.8-2.3-3.3-3.2-7.8-4.8-11.4-3.4-6.4-15.4-24-22.3-25.8-11-3-62.7-3-69.9-.7-1.4 2.3-5.4 13.6-6.8 17-1.7 5.6-6.7 22.9-10.5 26.2-1-1-1-1.3-1.4-2.7-6.7-.7-16.4.7-23 1-7 .2-14.7-1-21.7-1.3-5.3-.2-11.2 0-16.6 0-.7 0-1.4-.9-1.9-1.4.3-1.9.5-2.2-.3-4 0-2.4 19.6-52.5 21.9-57 12.5-34.2 26.8-71.4 40.2-105.4l14.8-39.5c.5-2 2.9-7.7 3.7-9.8z"/><path fill="#0f67cd" d="M457.6 246.4c5.7-1 144.5-1.3 150 .3l.8.6c.3 4.1.7 11.2.6 15.4 0 5.6.5 34.8-.8 38.2-1.3.9-1.8.7-3.4.7-.6 1.3-1.2 3-2.2 3.7l-.2-3c-4.3-.3-3-.4-6.8.8-16.8 5.3-37.3 4.5-55 6-7.2.7-12.4-.7-19.6 1.5-.8 3.7-.2 6.6-.4 9.8-.4 5.2 0 19.2-1 23.7q27-.1 53.9.2l16.1.2c0 8 .4 20.1-.1 27.7.2 7 .2 15.5 0 22.6-10.7 1.7-26.2.5-37.2.9-1.3 0-2 .4-3 1.1q3 .8 5.8.6v.6c-4 .7-28.6 1.3-32.4.4l.2-.5c2.7-.7 4.3-.5 7-.4l.1-.3c-2.8-1.7-6-1.5-9.3-1.5 0 4-.2 13.6-.5 17.7-.3 6.4.6 28.6-.6 32.9 0 4.3.4 30.3-.4 33-1.5.3-1.5.3-3 .2-.9 2.5-1 2.8-2.7 4.7.8-2.1.8-1.1.5-3.1-3.6-2.5-5.3.4-9 2l-.5.7.6.5c-.7.4-33.3 1.6-37.5 2.5-.8.1-8.1-1-9.5-1.1q-8-1.2-16-.2a144 144 0 0 1-53.4.8c-1.8-.4-5.6-3.2-6.7-4.8-2.3-3.3-3.2-7.8-4.8-11.4-3.4-6.4-15.4-24-22.3-25.8-11-3-62.7-3-69.9-.7-1.4 2.3-5.4 13.6-6.8 17l-.7-.3c2-6.8 5.5-14 7.6-21.3.6-1.4 1-3.3 2.2-3.4 6-.3 13.9-.1 19.8 0l62.6.3c3 8.5 9.4 24 11.6 31.7 1.3 1.8 3.6 9.5 4.3 12h68c-2.3-4.8-5.7-15.3-7.6-20.8 2.7 2.5 3 5.9 4.5 9 1 2.2 1.5 6.3 2.5 8l.4-.4c.3 0 2.7-3.3 2.7-3.3.5-6-.4-15.3-.3-21.1l1.2-117c0-15.7-.7-31.2.2-46.9.3-5.8-.1-11.7.4-17.8q.2-11.4 0-22.9"/><defs><linearGradient id="b" x1="507" x2="579.6" y1="317.1" y2="229" gradientUnits="userSpaceOnUse"><stop offset="0" stop-color="#0891f6"/><stop offset="1" stop-color="#4fc5f7"/></linearGradient></defs><path fill="url(#b)" d="M457.6 246.4c5.7-1 144.5-1.3 150 .3l.8.6c.3 4.1.7 11.2.6 15.4 0 5.6.5 34.8-.8 38.2-1.3.9-1.8.7-3.4.7-.6 1.3-1.2 3-2.2 3.7l-.2-3c-4.3-.3-3-.4-6.8.8-16.8 5.3-37.3 4.5-55 6-7.2.7-12.4-.7-19.6 1.5-.8 3.7-.2 6.6-.4 9.8-.4 5.2 0 19.2-1 23.7q27-.1 53.9.2c-4 .4-11.1.2-15.3.2q-19.7.4-39.5.3c0-7.6-.3-14-.5-21.5-.3-5.7-.7-9.9-.7-15.8l-1.5-2.7-11-3.3-1-1.5c-.6.5-1.1 1.2-2 1-5.8-2.1-18.9-4.6-23.5-7.8-7.2-5.6-7.9-21.9-8-30-.2-10.8 16.5-12.7 23-16.3l-.3-.7c-5.1.3-30.6 1-34.8.3z"/><path fill="#aad5f1" d="M571.7 301.4c9.5.4 24.7-.7 33.1.2-.6 1.3-1.2 3-2.2 3.7l-.2-3c-4.3-.3-3-.4-6.8.8-16.8 5.3-37.3 4.5-55 6-7.3.6-12.4-.7-19.6 1.5-.8 3.7-.2 6.6-.4 9.8-.4 5.2 0 19.2-1 23.7-.5-2.6-.2-11.6-.2-14.7l.2-27.9z"/><path fill="#0c53ab" d="M518.2 323.3c1.4-5-1.3-17.8.8-23.2 18 .5 38-.6 56-.3 8.4.2 24.4-1.3 31.8.7l-.3.3c-11.1 1.2-23.8-.4-34.8.6l-52.1.1-.2 27.9c0 3-.3 12 .2 14.7q27-.1 53.9.2c-4 .4-11.1.2-15.3.2q-19.7.4-39.5.3c0-7.6-.3-14-.5-21.5"/><path fill="#4bbbf2" d="m607.6 246.7.8.6c.3 4.1.7 11.2.6 15.4-1.3-7.4-8 2.9-14 .3-3.7-1.5-3-8-1-9.2 4.1-2.4 8.7-4.7 12.9-6.8z"/><path fill="#aad5f1" d="M457.6 269.3c.2 4.2 0 9 .4 12.9-.5 17-.3 34.7-.3 51.7v122.4c0 5.1-.4 17.7.2 22.1.8.7.4.5 1.1.7 4.5.5 13.9.2 18.7 0 10.8.1 28-.4 38.4.4-.8 2.5-1 2.8-2.6 4.7.8-2.1.8-1.1.5-3.1-3.6-2.5-5.3.4-9 2l-.5.7.6.5c-.7.4-33.3 1.6-37.5 2.5-.8.1-8.1-1-9.5-1.1q-8-1.2-16-.2a144 144 0 0 1-53.4.8c-1.8-.4-5.6-3.2-6.7-4.8-2.3-3.3-3.2-7.8-4.8-11.4-3.4-6.4-15.4-24-22.3-25.8-11-3-62.7-3-69.9-.7-1.4 2.3-5.4 13.6-6.8 17l-.7-.3c2-6.8 5.5-14 7.6-21.3.6-1.4 1-3.3 2.2-3.4 6-.3 13.9-.1 19.8 0l62.6.3c3 8.5 9.4 24 11.6 31.7 1.2 1.8 3.6 9.5 4.3 12h68c-2.3-4.8-5.7-15.3-7.6-20.8 2.7 2.5 3 5.9 4.5 9 1 2.2 1.5 6.3 2.5 8l.4-.4c.3 0 2.7-3.3 2.7-3.3.5-6-.4-15.3-.3-21.1l1.2-117c0-15.7-.7-31.2.2-46.9.3-5.8-.1-11.7.4-17.8"/><path fill="#d7f4fa" d="m442 485.5-1.3-.6.2-.5c8.9-1.8 27.2 1.3 37.7 0 4.2-.5 22.6-1 26-.6l.5.5c-.7.4-33.3 1.6-37.5 2.5-.8.1-8.1-1-9.5-1.1q-8-1.2-16-.2"/><path fill="#0c53ab" d="M588.8 394c0-3.7-.6-20.2.7-21.8.2 7 .2 15.5 0 22.6-10.7 1.7-26.2.5-37.2.9-1.3 0-2 .4-3 1.1q3 .8 5.8.6v.6c-4 .7-28.6 1.3-32.4.4l.2-.5c2.7-.7 4.3-.5 7-.4l.1-.3c-2.8-1.7-6-1.5-9.3-1.5 0 4-.2 13.6-.5 17.7-.3 6.4.6 28.6-.6 32.9 0 4.3.4 30.3-.4 33-1.5.3-1.5.3-3 .2-10.4-.8-27.7-.3-38.5-.3-2.6 0-9.2 0-11.5-.7 9.2-.6 20.5-.2 29.8-.3 5.5 0 17.2-.2 22.3.3.2-24.9 0-50.2.6-75.2.1-3.6-1.6-7.5-1.8-11 1.1-.8 6.6 1.9 8.8 1.6 2.9-.3 9 .4 11.4-.7-2.5-.7-4.8.2-7.8-.4l-.1-.4c2.7-.2 20.7-.6 22.7.2l-1 1c10 1.1 26.5-.4 37.7.3"/><path fill="#d7f4fa" d="m519.6 394.8 44.6-.2c7.5 0 18-.3 25.4.2-10.8 1.7-26.3.5-37.3.9-1.3 0-2 .4-3 1.1q3 .8 5.8.6v.6c-4 .7-28.6 1.3-32.4.4l.2-.5c2.7-.7 4.3-.5 7-.4l.1-.3c-2.8-1.7-6-1.5-9.3-1.5 0 4-.2 13.6-.5 17.7-.3 6.4.6 28.6-.6 32.9-.6-16.5 1-35.3 0-51.5"/><path fill="#033f9d" d="M458 282.2c.9 5.9.7 10.7.8 16.6q0 16.5-.5 33c.7 48 .7 97.6 1.1 145.9l1.2 1-1.6.4c-.7-.2-.3 0-1.1-.7-.6-4.4-.2-17-.2-22.1V333.9c0-17-.2-34.8.3-51.7"/><defs><linearGradient id="c" x1="336.6" x2="345.8" y1="400.4" y2="245.5" gradientUnits="userSpaceOnUse"><stop offset="0" stop-color="#0470e4"/><stop offset="1" stop-color="#3bcdff"/></linearGradient></defs><path fill="url(#c)" d="M291.5 245.7c3.3.4 11.5 0 15.1 0H337c5.2 0 12.4-.2 17.5.2l10.7.2 29.3 76.6c1.3 3.6 8.7 21.6 9 24.2 2.5 5.6 4.1 11.6 6.4 17.2 5.2 12.6 9.9 27.5 15.2 39.7-.5 1.2-.4 1.1-1.5 1.8-2.3-1-3.4-6.5-4.7-9.4h-.4v2.9c-9.1 1.8-9.9 1.6-18.5-2.2-9.1-4.2-6.9-11.6-8.9-17.2-3.8-10.8-31-3.6-38.5-6.5-.6-1.3-1-2-1.9-3.1l-.6-.8q3.4 9.1 5.8 18.5l-1.5-.9c-2.3.3-3.3.3-5.6.1h-12.8c-9.4-.2-19.4 0-28.9 0-1.6.1-3.1.5-4.4-.4v-1.5c-.2-2 .6-4 1.1-6-1.3-1.8.2-1.2-1.8-2.3h-1.8q-1.4.4-2.8 0c-3.2-.6-6.9-2.7-10-3.8-5.4-2-32.7-9.5-34.9-13q-.9-1.7-.3-3.6l.5-2.5.1-1c.4-2 4.2-12 5-14l8.1-21.5-1-1.4 15-39.5c.4-2 2.8-7.7 3.6-9.8z"/><path fill="#44c2f7" d="M363.2 252c-1.6-.4-4.8-.9-6-2l-.4.1 8.6-.2c.4 3.7 3.1 7.7 4.3 12.1-2.3 2.7 1.8 10 2.7 13.4 1.8 3.5 3.8 8.5 5 12.3l1.4 3.5c-2.9-.6-3.3-2.9-6-1.4-.8 1.5-1.3 2.6-2.7 3.5-15 10-31.5 11-48.7 7.6-8.3-1.6-18.7-6.3-23-14-3.2-5.5-11.2-17.2-8.9-23.7 1.4-3.8 3.5-5.2 4.3-10q4 0 7.8-.2 30.8-1 61.6-1"/><defs><linearGradient id="d" x1="343.2" x2="304.3" y1="354.1" y2="378.9" gradientUnits="userSpaceOnUse"><stop offset="0" stop-color="#b7d9f2"/><stop offset="1" stop-color="#f9fffd"/></linearGradient></defs><path fill="url(#d)" d="M322 331.8h.5c1.9 0 5.6-1.8 7-.5 1.4 1 19.5 51.5 19.4 54 0 .9 0 .9-.2 1.7h-12.8c-9.4-.2-19.4 0-28.9 0-1.6.1-3.1.5-4.4-.4v-1.5c5-11.2 9.3-25.4 14.1-37.1.6-2.9 4.2-12.4 5.4-16.2"/><path fill="#d7f4fa" d="M316.7 348c.1 5.6-7 19.3-7 22.2 1-.9 1.2-1.5 2.2-1.5.8 2.8-4.2 13-4.9 18.4-1.6 0-3.1.4-4.4-.5v-1.5c5-11.2 9.3-25.4 14.1-37.1"/><path fill="#aad5f1" d="M327.6 315c8.7 23.4 17.5 49.3 26.7 72-2.3.1-3.3.2-5.6 0l.2-1.6c.1-2.6-18-53-19.3-54.1-1.5-1.3-5.2.4-7 .5h-.5q3.1-8.3 5.5-16.8"/><path fill="#2589c4" d="m354.4 245.9 10.7.2 29.3 76.6c1.3 3.6 8.7 21.6 9 24.2-.8-.2-3.2-5-4.3-6.6l.4 1c-2.5-3-2.5-3.8-3.7-7.7-1.2-2.4-4.6-8.7-4.5-10.7l.4-1.4c-.8-2.2-1-2.4-1-4.6-1.4-4.2-4.5-13.2-6.6-17l-.2.2-2-1c-.8-2.5-2-5.5-3-8l-1.5-3.4a74 74 0 0 0-5-12.3c-.9-3.3-5-10.7-2.7-13.4-1.2-4.4-3.9-8.4-4.3-12-.1-1.2-.2-1.1-.7-2.2-2.7-2.3-8.1-.4-11.3-1.5z"/><path fill="#a3ebf9" d="M372.4 275.4c-.9-3.3-5-10.7-2.7-13.4 4.5 12.6 9.7 25.3 14.4 38h-.2l-2-1c-.8-2.4-2-5.4-3-7.8l-1.5-3.5a74 74 0 0 0-5-12.3"/><path fill="#2595e0" d="M390.8 316.9c1.8 4.1 6 12.6 5 16.7-1.2-2.4-4.6-8.7-4.5-10.7l.4-1.4c-.8-2.2-1-2.4-1-4.6"/><path fill="#0f67cd" d="M303.7 379c3.5-12.9 10-26.5 14.3-39.4 1.6-4.8 7.4-24.3 10-26.7 2.8 2.6 19 49.6 22 56.4q3.4 9.1 5.8 18.5l-1.5-.9c-9.2-22.6-18-48.5-26.7-71.9q-2.3 8.6-5.5 16.8c-1.2 3.8-4.8 13.3-5.4 16.2-4.8 11.7-9 25.9-14 37.1-.3-2 .5-4 1-6"/><path fill="#2177bd" d="M279.7 276.5c1.8 3.7-11.5 35.5-13.9 40.9l-1-1.4z"/><path fill="#44c2f7" d="m382 299 1.9 1h.2c2 3.7 5.2 12.7 6.7 16.9-.1 2.2 0 2.4.9 4.6l-.4 1.4c-.4-1.6-3-7-3.9-8.9a115 115 0 0 1-5.5-15"/><path fill="#aad5f1" d="m277.5 460.3.7.4c-1.7 5.5-6.7 22.8-10.5 26.1-1-1-1-1.3-1.4-2.7-6.7-.7-16.4.7-23 1-7 .2-14.7-1-21.7-1.3-5.3-.2-11.2 0-16.6 0-.7 0-1.4-.9-1.9-1.4.3-1.9.5-2.2-.3-4q4.8.4 9.4.3c19 .3 38 0 56.9.2l1.3-.2c1.6-1.5 6-15.5 7-18.4"/><path fill="#d7f4fa" d="m277.5 460.3.7.4c-1.7 5.5-6.7 22.8-10.5 26.1-1-1-1-1.3-1.4-2.7-6.7-.7-16.4.7-23 1-7 .2-14.7-1-21.7-1.3-5.3-.2-11.2 0-16.6 0-.7 0-1.4-.9-1.9-1.4 4.3-.6 12.6.1 17 .2 13 .2 37 2.4 48.6-2.2l.4-1.5 1.3-.2c1.6-1.5 6-15.5 7-18.4"/><path fill="#033f9d" d="m264.9 316 1 1.4-8.2 21.5c-.8 2-4.6 12-5 14-3.3 6.8-5.7 14.3-8.4 21.4L234 401c-1.1 3-4.2 13.9-6.8 16.2.3-.2-1.6 4.2-1.6 4.3-.8 0-.5.2-1 0 12.5-34.2 26.8-71.4 40.2-105.4"/><path fill="#2589c4" d="m354.3 387 1.5.8 1.4 1.4v1c-2.1 1.4-12 .2-15.3 0 2.1-.2 2.2-.2 4.2-.9v-1a94 94 0 0 1-10.2-1.2q6.4-.2 12.8 0c2.3 0 3.3 0 5.6-.2"/><path fill="#44c2f7" d="M690 212.6c.3-1.4.1-1 .9-2.3 3.7-1.4 42-.1 49.5-.7 2.6 1.3 2.9 3.2 3 6.1.4 12 .2 24.3.2 36.3 6.6 0 38.6-.5 42.9.8 3.7 5.4 1.3 39.2 1.8 47.5.2 1.8-1.2 2.4-2.7 2.8-4.5 2.1-12.3.7-17.4 1.4-9.4 1.4-14 3-23.5 1.3q.1 13.4-.5 26.7c-.1 2.5.1 8.3-.4 10.3-1.4 2-1.6 2.1-3.7 3.2-7.3 3.3-9.8-1.9-17 2.8-6.1 4.1-18.7 5.1-24.2-.2-4.6-4.5-4.7.3-10.1-5.3-.2-6 1.3-14.7.2-19.7l-1.8-.2c-10.2-17.3-36.9-15.7-41.8-22.4.3-6 .4-13 .5-18.8 0-3.7-.5-21.6.3-24l.6-5c2.6-1.3 37.2-.8 43.2-1z"/><path fill="#d7f4fa" d="M690 212.6c.3-1.4.1-1 .9-2.3 3.7-1.4 42-.1 49.5-.7l.3 1.4c-2.6 1.1-6.9-.6-8.6.8q4.5-.1 8.8.4c.6 11-.8 14.6-1 24 1.2 6.5-.2 12 2 17.8l.2.6-3 1.2c-.3 7.1 5 8.3 7.3 14.5.4 1.1-1 3.2-.2 5.7l.5.2c1.7-1.7 3.4-4.4 5-4.9.2 3.6-.1 13.8-.7 17.3-4.3 4-13.6-.6-15.7 4.6-2.9 1.8-7 3.2-9 5.7l.6 1-.7-.8-.2.3.1.5h.5l.6.4-3.2 2.5c-2.5-1.4-2-2-4.3-2.2l-1.3 1c-.4-.4-1.6-.6-2.2-.7l-.8-.1.2-.2c-4.7 0-8 0-10.4-4.3 0-.2-9.2-7.4-9.6-7.7L692 287c0-.3-3-5.8-3.4-6.8q-3.4-8.8 2-16.6l2.5-3.6c-1-1.3-1.6-1.5-1.5-2.9l1.4-.5v-.1l-.6.2-.4-1-3.1-1.2c-2.1-.6-10.6-.3-13.2-.3-7.3 0-20.4-.2-27.3.6l-1.7-1.5c2.6-1.3 37.2-.8 43.2-1z"/><defs><linearGradient id="e" x1="713" x2="719.7" y1="211.1" y2="254.2" gradientUnits="userSpaceOnUse"><stop offset="0" stop-color="#5dd0f3"/><stop offset="1" stop-color="#b9f9fe"/></linearGradient></defs><path fill="url(#e)" d="M690 212.6c.3-1.4.1-1 .9-2.3 3.7-1.4 42-.1 49.5-.7l.3 1.4c-2.6 1.1-6.9-.6-8.6.8q4.5-.1 8.8.4c.6 11-.8 14.6-1 24-1.6-2.3-.5-2.7-1.5-5.2-4.7-3.9-28.2-6.6-31-2.8l.9 1c-2.2 1.2-5.7 3.3-6.8 5.5-.6 7-.6 14.4-1.3 21.6-.5 4.6.2 7.5-1 12.6-.7-2.6.3-6.7-.6-9.7h-.8c-4 3.7-5.5 10-7.5 11.5-.5-2.2.2-4.8.3-7.2l2.6-3.6c-1-1.3-1.6-1.5-1.5-2.9l1.4-.5v-.1l-.6.2-.4-1-3.1-1.2c-2.1-.6-10.6-.3-13.2-.3-7.3 0-20.4-.2-27.3.6l-1.7-1.5c2.6-1.3 37.2-.8 43.2-1z"/><path fill="#0f67cd" d="M690 212.6c.3-1.4.1-1 .9-2.3 3.7-1.4 42-.1 49.5-.7l.3 1.4c-2.6 1.1-6.9-.6-8.6.8-9.4.2-18.9 0-28.4.3-3.8 2-10.5 6-10.3 10.8l-.3 1.4c0 6.4.7 24 .1 29.7-1.1.8-2.7.5-4.2.4-2.1-.6-10.6-.3-13.2-.3-7.3 0-20.4-.2-27.3.6l-1.7-1.5c2.6-1.3 37.2-.8 43.2-1z"/><path fill="#44c2f7" d="M692.4 212.5q5.7 0 11.3-.4c-3.8 2-10.5 6-10.3 10.8l-.3 1.4z"/><path fill="#a3ebf9" d="m708.3 229.2-1-1c3-3.8 26.4-1.1 31 2.8 1 2.5 0 3 1.7 5.2 1.1 6.5-.3 12 2 17.8v.6l-3 1.2c0-5.8.4-17.7-2.6-23-.4-.8-6.1-1.8-7.3-2 1.3.5 2.9 1 3.5 1.9-3.4 0-5.6-1.7-7-1.8-7.6-.3-10 0-17.3-1.7"/><path fill="#0c53ab" d="m646.8 253.2 1.7 1.5c7-.8 20-.6 27.3-.6 2.6 0 11-.3 13.2.3l3.1 1.3.4 1 .6-.3-1.4.6c-.1 1.4.6 1.6 1.5 2.9l-2.6 3.6a17 17 0 0 0-1.9 16.6c.4 1 3.4 6.5 3.4 6.8-.6 2.7 1.1 4 .1 4.7-3-1.6-4.2-.7-8-2.8l-.4.2c1 6.2 11.5 3.5 13.5 11 .6 2.2 5 5 6 7.3-.8 1.5-1.2 1.5-1.3 3.2-2.2-2.7-2.5-5.6-5-7.8-1.8-.3-2.1-.2-3.6-1.4-1.2-.6-2.6-.4-4-.3 1.7.3 2.5 0 3.4 1 1.2 8.4-1.5 35.9 1.1 40.7 4 1.2 40.7 1.4 44.5.1 3.8-4.2 2.3-33.7 2.8-41.7h11.6c6.2.5 28-.4 32 1.7l.8.3c-4.5 2.1-12.3.7-17.4 1.4-9.4 1.4-14 3-23.5 1.3q.1 13.4-.5 26.7c-.1 2.5.1 8.3-.4 10.3-1.4 2-1.6 2.1-3.7 3.2-7.3 3.3-9.8-1.9-17 2.8-6.1 4.1-18.7 5.1-24.2-.2-4.6-4.5-4.7.3-10.1-5.3-.2-6 1.3-14.7.2-19.7l-1.8-.2c-10.2-17.3-36.9-15.7-41.8-22.4.3-6 .4-13 .5-18.8 0-3.7-.5-21.6.3-24z"/><path fill="#6bd6f6" d="M675.8 254.1c2.6 0 11-.3 13.2.3l3.1 1.3.4 1 .6-.3-1.4.6c-.1 1.4.6 1.6 1.5 2.9l-2.6 3.6a17 17 0 0 0-1.9 16.6c.4 1 3.4 6.5 3.4 6.8-.6 2.7 1.1 4 .1 4.7-3-1.6-4.2-.7-8-2.8l-.4.2c1 6.2 11.5 3.5 13.5 11 .6 2.2 5 5 6 7.3-.8 1.5-1.2 1.5-1.3 3.2-2.2-2.7-2.5-5.6-5-7.8-1.8-.3-2.1-.2-3.6-1.4-1.2-.6-2.6-.4-4-.3h-.7c-3-1.3-13.3-.5-17.7-.8-.7-4.6-9.4-9.4-11.4-17.2-2.2-9-1.3-18.6-1.4-28 7 0 10.8.2 17.6-.9"/><defs><linearGradient id="f" x1="645.4" x2="665.2" y1="280.9" y2="276.5" gradientUnits="userSpaceOnUse"><stop offset="0" stop-color="#2aa8f3"/><stop offset="1" stop-color="#48c4f7"/></linearGradient></defs><path fill="url(#f)" d="M648.5 254.7c7-.8 20-.6 27.3-.6-6.8 1.1-10.6 1-17.6 1 .1 9.3-.8 18.9 1.4 28 2 7.7 10.7 12.5 11.4 17.1 4.4.3 14.7-.5 17.7.8-6.2.2-35 1.2-39.2-.9-1.7-4-1-39-1-45.4"/><path fill="#aad5f1" d="M688.8 343.3c-.2-6 1.3-14.7.2-19.7l-1.8-.2c-10.2-17.3-36.9-15.7-41.8-22.4.3-6 .4-13 .5-18.8 0-3.7-.5-21.6.3-24 1 8.8-1.4 37.7 1 43.3 3.3 2.8 12 1.8 16.4 1.9 8.7 0 17.6-.4 26.4-.2v40q1.7 1.6 3.5 2.8H740c-7.3 3.3-9.8-1.9-17 2.8-6.1 4.1-18.7 5.1-24.2-.2-4.6-4.5-4.7.3-10.1-5.3m60-42.2h4c6.2.5 28-.4 32 1.7l.8.3c-4.5 2.1-12.3.7-17.4 1.4-9.4 1.4-14 3-23.5 1.3q.1 13.4-.5 26.7c-.1 2.5.1 8.3-.4 10.3-.5-4.3-.4-13.3-.3-17.8 0-6.4-.3-14.9.1-21.2 1-1 1.5-.7 3.3-1-1.6-.3-2.1 0-4-.5q2.4-.4 5-1z"/><path fill="#033f9d" d="M748.8 301.1h4c6.2.5 28-.4 32 1.7-3.5.4-34.7.4-37.9 0-1.6-.3-2.1 0-4-.5q2.4-.4 5-1z"/><defs><linearGradient id="g" x1="772.8" x2="742.2" y1="268.4" y2="273.7" gradientUnits="userSpaceOnUse"><stop offset="0" stop-color="#4ecbf4"/><stop offset="1" stop-color="#b7f4fa"/></linearGradient></defs><path fill="url(#g)" d="m742 254.6 13.4-.2c5 .2 10.6 0 15.5.8l-.3.5-2.3.5.2.3 2 .3c-2.3 1.2-8.2 1.1-11.6 1.5a42 42 0 0 1 3 22.4c-.9 6.8 10.8 3.8 13.7 7-2 1.7-21 2.4-25.6 3-4.8.1-10 1.4-14.7 2.5 2.1-5.2 11.4-.5 15.7-4.6.6-3.5 1-13.7.7-17.3-1.6.5-3.3 3.1-5 4.9l-.5-.2c-.8-2.5.6-4.6.2-5.7-2.3-6.2-7.6-7.4-7.4-14.5z"/><path fill="#4bbbf2" d="m710.4 317 .9-2.5c2.2 0 8-.2 9.5.5 1.7 3.8 2 13.6 3.2 18.5 1 .3.5.3 1.5.1.7-1.6 1.1-6.6 1.4-8.8.2 4.6 0 6.8-.6 11.3 5.3-1.3 7.1-1.5 12.4-.9.1 1.6.3 2.5-.2 4-1.1 1-3 2-4.5 2-5.3-.2-35.8 1-38.5-1-1.5-5-.8-18.2.7-23.2h.3c.5 5.2-1.3 11 .5 15.5.6 1.4 4.2 4.4 6.4 3.1q0-3 .3-6 .6 4 .6 8c1.4-1.8 2.4-2.7 4.1-4.3q1-8 2-16.3"/><path fill="#aad5f1" d="m692.1 287 3.5 1.6 9.6 7.7c2.4 4.4 5.7 4.3 10.4 4.3l-.2.2.8.1c.6.1 1.8.3 2.2.6l2 .4-1.4 1v.4c1 .5 1 .6 2.3.7 1.1 1.9 1.4 3.5 2.1 5.6 1 1 1 1 1.5 2.1l.3.9c.1-1.3 0-1.7.5-3l.3-.7c1.3 7.6.2 16.1-1 23.8l-1 .8c-1.2-5-1.5-14.7-3.2-18.5-1.6-.7-7.3-.4-9.5-.5l-1 2.5c-1.8 1.4-1.3 11.6-3.7 15.4l-1 1.8c-.5-.4-.4-.2-.5-.6.4-6 1.5-17.2-1.4-22.8l-.6 1.3c-1-.5-.6-.1-1.1-1.6.1-1.7.5-1.7 1.2-3.2-1-2.3-5.3-5-6-7.4-1.9-7.4-12.4-4.7-13.4-10.9l.5-.2c3.7 2 5 1.2 8 2.8 1-.7-.8-2-.2-4.7"/><path fill="#6bd6f6" d="M723.4 309.6c1 1 1 1 1.5 2.1l.3.9c.1-1.3 0-1.7.5-3l.3-.7c1.3 7.6.2 16.1-1 23.8l-1 .8c-1.2-5-1.5-14.7-3.2-18.5-1.6-.7-7.3-.4-9.5-.5l-1 2.5c-1.8 1.4-1.3 11.6-3.7 15.4 0-6.7 1.8-15 3.2-21.7q2.5-.2 4.9.3c-.7.7-1 .7-2 1h-1l5.7-.3-.2.1c2.1-.1 2.8-.3 4.8.3q1 3.2 1.5 6.7z"/><path fill="#2177bd" d="M740.4 209.6c2.6 1.3 2.9 3.2 3 6.1q.4 18.2.2 36.3c6.6 0 38.6-.5 42.9.8 3.7 5.4 1.3 39.2 1.8 47.5.2 1.8-1.2 2.4-2.7 2.8l-.7-.3c-4.1-2.1-25.9-1.2-32.1-1.7 8.7-.6 23.2-.3 32.4-.3.9-6.8 1.7-39.9.1-45.4-2.2-2-6.1-1.4-9.2-1.4-5.8 0-15.1-.2-20.7.4q-6.7 0-13.3.2l-.2-.6c-2.2-5.7-.8-11.3-2-17.8.2-9.4 1.6-13 1-24q-4.3-.5-8.8-.4c1.7-1.4 6 .3 8.6-.8z"/><path fill="#a3ebf9" d="M735.3 293.2c4.6-1.1 10-2.4 14.7-2.5-3.9 2.6-5.6.6-9.2 4-5.8 5.4-4.5 10.3-13.2 11.7-1.2 1-1 1-1.6 2.5l-.3.8c-.4 1.2-.4 1.6-.5 2.9l-.3-.9a5 5 0 0 0-1.5-2c-.7-2.2-1-3.8-2.1-5.7-1.2 0-1.2-.2-2.3-.7v-.5l1.3-1-1.9-.3 1.3-1c2.4.4 1.8.9 4.3 2.3l3.2-2.5-.6-.4h-.5l-.1-.5.2-.3.7.7-.6-.9c2-2.5 6.1-4 9-5.7"/><path fill="#4bbbf2" d="M693.4 301.3c1.5 1.2 1.8 1.1 3.6 1.4 2.5 2.2 2.8 5.1 5 7.8.5 1.5 0 1 1 1.6l.7-1.3c2.9 5.6 1.8 16.8 1.4 22.8-1-3.9-.6-7.9-2.3-12.8-1.7-4.5-3-8-5.2-12.5-.4-1 .3-2.7-.5-4.9-1.3-.4-.8-.3-2.2 0-1 1.2-1 1.5-1.2 3z"/><defs><linearGradient id="h" x1="760.9" x2="762.3" y1="477.9" y2="410.9" gradientUnits="userSpaceOnUse"><stop offset="0" stop-color="#0745ab"/><stop offset="1" stop-color="#1b9ef3"/></linearGradient></defs><path fill="url(#h)" d="m734.1 410.1 19 .2c10.1 0 23.2-1.3 31 6.5 3.1 3 4.1 7.4 4 11.6-.4 8-5.6 11.6-12.1 14.8 12 4.7 17.6 10.2 12.4 24.9-3.8 11.1-21.4 11.1-30.7 10.7-2.6 0-6 0-8.4-.2q-7.6.2-15.2.2l.3-8.4-.3-6.5c.2-17.8-.4-36 0-53.8"/><path fill="#033f9d" d="m734.4 470.4.5-.8c.8 2.1-.5 4.6 1.7 6 3.6 2.5 8.5 1.5 12.7 3q-7.6.2-15.2.2z"/><path fill="#fefeff" d="M748.8 448.5a89 89 0 0 1 22.3-.9c3.4 2.6 7.5 6.8 6.3 11.5h-.5l-.2-.5.6-.2-.7-.4v-1c-.2 15.3-18.6 11.7-29.4 11.5-.2-4-.8-16.5.3-19.7z"/><path fill="#033f9d" d="M748.8 448.5a89 89 0 0 1 22.3-.9c3.4 2.6 7.5 6.8 6.3 11.5h-.5l-.2-.5.6-.2-.7-.4v-1c-3-11.6-18-8.3-27.8-8.5"/><defs><linearGradient id="i" x1="759.2" x2="757.9" y1="424.4" y2="438.7" gradientUnits="userSpaceOnUse"><stop offset="0" stop-color="#deeff9"/><stop offset="1" stop-color="#fff"/></linearGradient></defs><path fill="url(#i)" d="m747.3 420.7.2-1c4.5-1 20.2-1.5 24.4 1.7 2 1.5 2.2 2.4 3.2 4.6-.4 1 0 .7-1 1 0 16.2-14.7 12.5-26.7 12.3 0-6.1.3-12.5 0-18.6"/><path fill="#033f9d" d="m747.3 420.7.2-1c4.5-1 20.2-1.5 24.4 1.7 2 1.5 2.2 2.4 3.2 4.6-.4 1 0 .7-1 1-3.7-10-17.8-4.8-26.8-6.3"/><path fill="#fefeff" d="M811 564.4a30 30 0 0 1 37.6 0 30 30 0 0 1-35.2 48.4 30 30 0 0 1-2.5-48.4"/><defs><linearGradient id="j" x1="831.6" x2="828.7" y1="616.1" y2="574.8" gradientUnits="userSpaceOnUse"><stop offset="0" stop-color="#0e4fac"/><stop offset="1" stop-color="#2096e7"/></linearGradient></defs><path fill="url(#j)" d="M846.7 577.3c1.3 1 1.3 2 1.7 3.6.7-4 4.4-3.1 6.7-7.2.8 1.6 1 2.7 2.6 3.3a30 30 0 0 1-44.3 35.8 30 30 0 0 1-12.6-32.9l1 1.7c2.4.6 8.3 1 10.4-.1.3-1.6.3-2.7 1.3-4h.7c-2 7-2.8 13.8.7 20.5a18 18 0 0 0 4.8 5.9 18 18 0 0 0 16.6 2.3c6.2-3.8 7.2-6 10-12.5 3.8-3 1.2-12.1.4-16.4"/><path fill="#2595e0" d="M819.7 603.9a18 18 0 0 0 16.6 2.3c.9.8.6.3 1 1.3-3.4 3-13.3 2.4-16.6-.7-1.4-1.3-1-1.1-1-3m-8.8-39.4a30 30 0 0 1 37.7 0 30 30 0 0 1 9 12.6c-1.5-.6-1.7-1.7-2.5-3.3-2.3 4-6 3.3-6.7 7.2-.4-1.6-.4-2.5-1.7-3.6-4.3-6.2-8.8-10-16.9-9.8-4.7 0-8.9.8-12.4 4.4l.3.7c-.7 1-2.8 4.3-3.5 5h-.7c-1 1.2-1 2.3-1.3 3.9-2.1 1.2-8 .7-10.3.1l-1.1-1.7a30 30 0 0 1 10.1-15.5"/><path fill="#4bbbf2" d="M811 564.4a30 30 0 0 1 37.6 0c-3.2.7-13-4.2-20.7-4-7.8.3-12.7 4.6-17 4"/><path fill="#0c53ab" d="m817.7 572.6-.3-.7c3.5-3.6 7.7-4.3 12.5-4.4 8-.2 12.5 3.6 16.8 9.8.8 4.3 3.4 13.3-.4 16.4.3-3.5.7-6 .2-9.5-2.1-15-16.5-19.7-28.8-11.6"/><path fill="#0f67cd" d="M442.2 593.1a29.8 29.8 0 0 1 47.7-28.8 29.8 29.8 0 1 1-47.7 28.9"/><path fill="#fefeff" d="M454.4 592.2c-1.1-17 7.4-27.8 25.1-22 5.4 3.7 7.3 6.3 8.8 12.8 6 25.4-29 34.3-33.9 9.2"/><defs><linearGradient id="k" x1="471.2" x2="476.1" y1="587.7" y2="559.2" gradientUnits="userSpaceOnUse"><stop offset="0" stop-color="#137cda"/><stop offset="1" stop-color="#27a0e3"/></linearGradient></defs><path fill="url(#k)" d="M442.2 593.1a29.8 29.8 0 0 1 47.7-28.8 30 30 0 0 1 10.1 32.3c-1-5.2 4-8.6-8.1-9.3-1 1-1.1 3-1.4 4.6l-.3.1c-.3-8.8-.6-17.4-9.7-22.2l-1 .4c-17.7-5.8-26.2 5-25 22l-1.2-.2c-.3-2 .8-6.2-.7-7.3-2.4-1.7-6.5-3.6-9.6-3-1.4 2.4.2 8.3-.8 11.4"/><defs><linearGradient id="l" x1="684.9" x2="682.4" y1="615.2" y2="585.3" gradientUnits="userSpaceOnUse"><stop offset="0" stop-color="#0d4aa7"/><stop offset="1" stop-color="#1985e0"/></linearGradient></defs><path fill="url(#l)" d="M668.6 558.8c2.6-.6 11.3-.2 14.4-.1 4.2.6 10.5 1.7 13.8 4.5 6.2 3.9 12 10.7 12.5 18.2 4.4 21.7-10.5 35.4-31.2 35.2l-20.6-.1c0-8-.3-18 .1-25.9-.4-9.6 0-21.9-.1-31.7z"/><path fill="#fefeff" d="M670.3 569c11.1-.1 19.4-1.4 25.3 9.7 3 9 2.2 21.1-6.7 26.2-4.3 2.4-13.5 1.7-18.5 1.6-.2-5.7.1-18.4-.4-23.4z"/><path fill="#2595e0" d="M668.6 558.8c2.6-.6 11.3-.2 14.4-.1 4.2.6 10.5 1.7 13.8 4.5 6.2 3.9 12 10.7 12.5 18.2-.6 1.9-.3 3.5-1.4 4.3l-2.8-1.4c-2.3 0-3.6.7-5.7-.5-1-1.3-.6-1.5-.8-3.3-1.2-1.5-.9-1-3-1.8-5.9-11-14.2-9.8-25.3-9.7l-.3 14.1c-1 1.8-.3 2.2-1.8 3.8q-4.5-.1-9 .5c-.3-3.5.1-5.6-.3-9.7-.7 4.7-1 8.2-1.3 13-.4-9.7 0-22-.1-31.8z"/><path fill="#6bd6f6" d="M683 558.7c4.2.6 10.5 1.7 13.8 4.5q.1 1.3.7 2.6c-1.2.6-5.5-2.8-7.5-3.4-2.6-.9-4-1-6.6-1.4z"/><path fill="#44c2f7" d="M668.6 558.8c2.6-.6 11.3-.2 14.4-.1l.4 2.3c-4.4 0-11.3.3-14.8-2.2"/><defs><linearGradient id="m" x1="690.3" x2="690.3" y1="477.5" y2="411" gradientUnits="userSpaceOnUse"><stop offset="0" stop-color="#053ea8"/><stop offset="1" stop-color="#149ef3"/></linearGradient></defs><path fill="url(#m)" d="m682.4 410.1 16.1.4c1.3 4.9 4.6 13 6.5 17.8l11.2 28.6c2.8 7 6 14.7 8.3 21.9l-13.6-.1-6-16H700l-23.8-.1c-1.2 4-4.5 11.8-6.1 16.2-4.3.2-9.3 0-13.7 0 2.1-4.8 4-10.6 5.7-15.6 6.3-17.6 14.5-35.3 20.2-53.1"/><path fill="#fefeff" d="M690.6 423.8c2.8 5.7 8.6 22.8 10.8 29l-11.2-.1-10.5.2c3.7-9.4 7.8-19.5 10.9-29"/><defs><linearGradient id="n" x1="559.8" x2="564.1" y1="609.5" y2="557.7" gradientUnits="userSpaceOnUse"><stop offset="0" stop-color="#105cb8"/><stop offset="1" stop-color="#22a6ef"/></linearGradient></defs><path fill="url(#n)" d="m533.2 558.8 11.3-.2c.7 1.4 1.7 3.2 2.1 4.5l6.4 13.3c2.1 4.4 8 15.1 9 19.6.4.5.1.2.9.7a892 892 0 0 0 17.4-37.8l13.2.1c0 10.7.8 21.7.5 32.3.6 7.7.5 17.5.5 25.3H583c-.4-8.1-.5-18.4-.3-26.4l-.3-12.1c-3.1 6.5-12 28.9-16.6 32.3-1.2.9-2.7 1.5-4.2 1-1.7-.5-3.1-2-4.1-3.5-4.5-6.4-10.3-21.6-14.1-29.5-.9 12.7-.8 25.4-.8 38.1h-11.3c.2-12.6-.3-31.2.7-43.2-.2-2.1-.1-12.2.4-14.2z"/><defs><linearGradient id="o" x1="534.6" x2="538.7" y1="615.2" y2="578.9" gradientUnits="userSpaceOnUse"><stop offset="0" stop-color="#0b49a8"/><stop offset="1" stop-color="#1e8cdf"/></linearGradient></defs><path fill="url(#o)" d="M531.2 616.5c.2-12.6-.3-31.2.7-43.2v.6c.3 2.5.2 9.5.6 10.8l.4-6c3.6.5 6.1 1.9 8.6 2.3l1-3 .8.4c-.9 12.7-.8 25.4-.8 38.1z"/><defs><linearGradient id="p" x1="591.5" x2="585.6" y1="615.7" y2="589.1" gradientUnits="userSpaceOnUse"><stop offset="0" stop-color="#0945a2"/><stop offset="1" stop-color="#1983da"/></linearGradient></defs><path fill="url(#p)" d="m582.6 590.2.5.8v3.2l.6-2.3c3.3-2 7.5-1.8 9.7-4.1 0 1.3-.6 2.6.6 3.5.6 7.7.5 17.5.5 25.3H583c-.4-8.1-.5-18.4-.3-26.4"/><path fill="#2595e0" d="M544.8 564.6c.1-1.6-.2-2.7-1-4.2.3.2 2 2.2 2.8 2.7l6.4 13.3c2.1 4.4 8 15.1 9 19.6l-.8 2c-2.5-2-14.6-29-16.4-33.4"/><path fill="#4bbbf2" d="m533.2 558.8 11.3-.2c.7 1.4 1.7 3.2 2.1 4.5-.7-.5-2.5-2.5-2.8-2.7.8 1.5 1.1 2.6 1 4.2-3.3-7.8-9.4.4-11.6-5.8"/><defs><linearGradient id="q" x1="406.5" x2="414.8" y1="583.2" y2="560.9" gradientUnits="userSpaceOnUse"><stop offset="0" stop-color="#187fd6"/><stop offset="1" stop-color="#1d9bdd"/></linearGradient></defs><path fill="url(#q)" d="M401.9 559c10-1.3 22.4-1.2 28.7 8 3.2 6 4 14.3-1 19.6-2.2 2.9-4.5 4-7.6 5.8l14.5 24q-6.8.2-13.7-.1c-5-6.8-6.6-13-11.6-18.9-2.3-2.7-5.4-2.3-8.8-2.2l-.1 21.3h-12.6v-31.7l.2-25.8z"/><defs><linearGradient id="r" x1="410.8" x2="414.1" y1="616.7" y2="578.3" gradientUnits="userSpaceOnUse"><stop offset="0" stop-color="#0c3e98"/><stop offset="1" stop-color="#1b85de"/></linearGradient></defs><path fill="url(#r)" d="M389.7 584.8q1-2.4 1-5c-.1-4.3 9.1-3.4 10.9-.8-.4 1.8-.2 2 .4 3.6 0 .7 0 2.4.5 2.8 2.4 1.5 9.2.7 11.9 0 3 .8 9 .7 12.6 1l-1 .3c2.1.6 1.8 0 3.6 0-2.2 2.8-4.5 4-7.6 5.7l14.5 24q-6.8.2-13.7-.1c-5-6.8-6.6-13-11.6-18.9-2.3-2.7-5.4-2.3-8.8-2.2l-.1 21.3h-12.6z"/><path fill="#fefeff" d="M402.4 569c4.6 0 13.9-.8 16.6 2.5 5 6 .5 11.3-4.6 14-2.7.6-9.5 1.4-12-.1-.4-.4-.4-2-.4-2.8.3-4.7.4-8.9.4-13.6"/><path fill="#4bbbf2" d="M401.9 559c10-1.3 22.4-1.2 28.7 8l-1.2.7q-2-.4-3.5-2.2c-3.4-3.9-18.6-6.2-24-6.6"/><path fill="#0f67cd" d="M275.7 559c3.7-.6 7.2-.4 11-.4 1.2 2 3 4.4 4.2 6.3 2.6 3.7 12.3 16.8 13.8 19.8 2.5 3.2 6.5 9.3 9 11.7l-.3-2.7c-.8-4-.4-28.8-.4-34.7h12c0 8 .5 18.6 0 26.3.5 8.3.1 22.4.2 31.3h-10.4c-9.5-11.3-18.4-26.3-27.3-37.4-.3 12-.1 25.2-.2 37.4h-11.8c-.2-19.2.6-38.6.2-57.6"/><path fill="#2177bd" d="M275.7 559c3.7-.6 7.2-.4 11-.4 1.2 2 3 4.4 4.2 6.3 2.6 3.7 12.3 16.8 13.8 19.8 2.5 3.2 6.5 9.3 9 11.7l.7 1.4-.3 1c-2.8.8-5-4.4-6.9-6.5-8.4-9.2-14.9-19.6-21.8-30-.7-1-4.9-.6-6.3.4-2.7 3.5-1.1 7.5-2 12.2-.5-2.8 0-10.6.2-13.8z"/><path fill="#2589c4" d="M290.9 565c2.6 3.6 12.3 16.7 13.8 19.7l-.2.5.3 1.4a91 91 0 0 1-16.8-22c1.5.3 1.4.4 2.9.3"/><path fill="#2595e0" d="M275.7 559c3.7-.6 7.2-.4 11-.4 1.2 2 3 4.4 4.2 6.3-1.5 0-1.4 0-3-.3l-2.2-3c-2 0-7.3.4-8.4-.5z"/><path fill="#2589c4" d="M313 559h12c0 8 .5 18.6 0 26.3l-.6-.8c-.1-2 .5-7.1 0-8.3l-1.2.4c-2-1.5-8.3-10.4-8.8-12.6h-.2c-.4 6.1.3 12.1-.7 18.5-.5 3 .3 7.8 0 11.2-.9-4-.5-28.8-.5-34.7"/><path fill="#0c53ab" d="M225.5 559c12.5 0 26-.3 38.6 0 .3 3.9.4 6.4.3 10.2-8.5.4-17.9.2-26.4.1l.1 13.5c4.1-.1 18.2-.6 21.6 0 .5 1.5.5 1.5.5 3l-.2 6.5-22 .2v13.8c4.5 0 24-.5 26.8.8l.5.8c-.3 2.5-.2 6-.2 8.6-12.6.2-27.2.3-39.7-.1l.2-35.2z"/><defs><linearGradient id="s" x1="241.8" x2="248.6" y1="571" y2="554.1" gradientUnits="userSpaceOnUse"><stop offset="0" stop-color="#1477c8"/><stop offset="1" stop-color="#1e90d5"/></linearGradient></defs><path fill="url(#s)" d="M225.5 559c12.5 0 26-.3 38.6 0 .3 3.9.4 6.4.3 10.2-8.5.4-17.9.2-26.4.1l.1 13.5c4.1-.1 18.2-.6 21.6 0 .5 1.5.5 1.5.5 3-1.5 0-2 .2-3-.6 1.8-.4 1.2 0 2.2-1-2.4-1.6-22.5.5-23.6-.5 1.2-4.1 2.7-10.2 1-14.3-2-4.5-6.8-2.7-10-4.3-.9 1.5.4 17.5-.6 20.7.1-2 0-2.1-.5-4l-.1-.6z"/><path fill="#0f67cd" d="M238 606.3c4.5 0 24-.5 26.8.8l.5.8c-3.5 1.5-27.8 2-30 0 .9-1.3.9-1 2.8-1.6m369.6-47.5c12.8.5 25.6 0 38.5.2.3 3 .2 7.2.3 10.3-8.4.3-18 .2-26.3-.1q0 4.7-.2 9.5c.2 2-.1 2.6.9 4 4 .7 16.7.3 21.3.3q.2 4.8.1 9.5h-21.8l-.4 5.7.1 7.4.6.8c5 .7 24-1 26.2.8l.3.6v8.7c-12.9 0-26.7.4-39.4 0-.5-4.1-.3-14.7-.3-19.5z"/><path fill="#2595e0" d="M607.7 558.8c12.8.5 25.6 0 38.5.2.3 3 .2 7.2.3 10.3-8.4.3-18 .2-26.3-.1q0 4.7-.2 9.5c-1 3-2.4 4.1-2.5 6.2-4 1-6.7.3-8.5 2.8-.6-1.3-.6-2.2-.7-3.7-.4 10.9 0 21.7-.4 32.5-.5-4.1-.3-14.7-.3-19.5z"/><path fill="#2589c4" d="M617.5 585c0-2.2 1.5-3.2 2.5-6.3.2 2-.1 2.6.9 4 4 .7 16.7.3 21.3.3q.2 4.8.1 9.5h-21.8l-.4 5.7c-.2-2-.9-4.4-.4-6.1 1.8-1 18-.7 21.8-.9v-7c-5-.2-5.9 0-10.7 1.5-4-2.4-8.4-1.3-13.3-.8m2.7 20.7.6.8c5 .7 24-1 26.2.8l.3.6a99 99 0 0 1-28.5.6l-.2-.5c1-.9 1.2-1 1.6-2.3"/><path fill="#0c53ab" d="M190.2 558.2c8-.5 21.8.5 25.3 9.2-1.6 2.5-2.5 4.1-5 5.9l-.5.6c-5.4-.3-8.4-7.3-18.5-5-15 3.4-16.4 17.4-11.7 29.5 5.6 7.2 8 8.2 17.1 8.8 6-.9 7.9-2.7 12.5-6.1 3.4 2.1 4.7 3.4 7 6.6L213 611c-19.6 16.8-52.6-.5-48-26.7 1.1-7 3.3-14 9-18.5 3.8-4.5 10.8-6.4 16.2-7.6"/><path fill="#2177bd" d="M190.2 558.2c8-.5 21.8.5 25.3 9.2-1.6 2.5-2.5 4.1-5 5.9.5-2.9 2.4-2.3 2.5-4.7q-.7-.8-1.5-1.4c-6.2-5.3-6.8-1.2-12.7-2-5.2-.9-4-3.7-11-3.1h-.8l-.2-.5-1.3-1c-5.8.8-8.6 5.1-11.4 5.2 3.7-4.5 10.7-6.4 16-7.6"/><defs><linearGradient id="t" x1="194.2" x2="204.2" y1="561.7" y2="557.4" gradientUnits="userSpaceOnUse"><stop offset="0" stop-color="#3d8ed3"/><stop offset="1" stop-color="#57b8e0"/></linearGradient></defs><path fill="url(#t)" d="M190.2 558.2c8-.5 21.8.5 25.3 9.2-2.1-.2-3.2-1.1-5-2.2-7.5-4.5-10.2-5-18.7-4.6-.7-.4-1.1-1.5-1.6-2.4"/><path fill="#2177bd" d="M179.8 598.4c5.6 7.2 8 8.2 17.1 8.8 1.3.8 1.1.4 1.6 1.5-3.9 2.7-20.3-2-18.7-10.3"/><defs><linearGradient id="u" x1="619" x2="634.8" y1="480.3" y2="415.3" gradientUnits="userSpaceOnUse"><stop offset="0" stop-color="#093da5"/><stop offset="1" stop-color="#1193e2"/></linearGradient></defs><path fill="url(#u)" d="M605.6 410.3h13v56.8h32v11.4c-15 .4-30.3.1-45.2 0-.4-7.9-.2-18.3-.2-26.3z"/><path fill="#2589c4" d="M618.8 380.7c21.4.8 46 .2 67.6.2l109.8.2c6.5 0 51.4-.5 55.3.9l.1.7-1.5 1q-4.6 1-9.4 1.1c-49.7.6-99.5-.3-149.2-.3l-52 .4c-4.8 0-17 .5-21-.5-.6-1.4-.2-1.8.3-3.7"/><path fill="#2595e0" d="m720.9 558.9 12 .1q.2 24.9 0 49.7l.1 7.9h-12.2c-.5-3.3-.3-15.1-.3-19q-.1-19.4.4-38.7"/><path fill="#0f67cd" d="M720.8 616.6c.4-5.1-.3-17.5 1-21.5 2.2-1.3 7-2 9.4-.7 2.4 2.8 1.4 9.4 1.7 14.3l.1 7.9zm23-27.8 1.5 2.5c-.2-3.3-1.6-6.7 0-9.5 1.8 2.3 6.6 1.5 9.4 3 1.8 1-.3 7.2 1.6 7.7 1 3.2 1.5 5.3 3.5 8.2 4.5 4.4 7.8 6.3 14.3 6.2q2.1 0 4.2-.3c4.6-1.4 6-2.5 9.5-5.6 3.5 2.5 4.9 3.5 7.2 7.1l-1.6 1.8a28 28 0 0 1-19.3 7.6c-17.4.1-30-11-30.2-28.7"/><path fill="#2595e0" d="M759.8 600.7c4.5 4.4 7.8 6.3 14.3 6.2q2.1 0 4.2-.3l2.1 1.2-.4.8c-5 2.6-20-.5-21.1-6.4zm3.8-41.1c5.6-1.6 20.4-2.3 24.5 2 3.2 1.8 3.5 2 6.1 4.4-2.2 3.6-3.1 5.5-6.2 8.5-5.8-3.8-11.4-7.2-18.6-5.7-11.8 2.5-13.8 13.7-13.1 23.7-2-.5.2-6.8-1.6-7.8-2.8-1.4-7.6-.6-9.4-2.9-1.6 2.8-.2 6.2 0 9.5l-1.4-2.5c-.8-2.9.8-10.4 2-13.2 4-9 9-12.5 17.7-16"/><path fill="#4bbbf2" d="M763.6 559.6c5.6-1.6 20.4-2.3 24.5 2-.6.5-.6.6-1 1.3-.8.2-.8.4-1.6 0-7.6-2.6-14.7-.7-22-3.3"/><path fill="#2589c4" d="M334.3 559c14.7 0 31.7-.6 46.2 0l.1 10.4h-17.1v10c-.5-1.4 0-1.5-.8-2.8-.5 1.2-.3 3.1-.3 4.6-1.9-.2-3.6-2.5-8.1-3.5l-1.4 1h-.5l-1.4-3.4v-5.8c-5-.1-11.8 0-16.6-.4-.3-4-.3-6-.1-10"/><defs><linearGradient id="v" x1="355.3" x2="358.1" y1="615.2" y2="577.5" gradientUnits="userSpaceOnUse"><stop offset="0" stop-color="#0d45a4"/><stop offset="1" stop-color="#1882d9"/></linearGradient></defs><path fill="url(#v)" d="M351 575.3q.8 1.7 1.4 3.3l.5.2 1.4-1.1c4.5 1 6.2 3.3 8.1 3.5 0-1.5-.2-3.4.3-4.6.7 1.3.3 1.4.8 2.7v37.3H351z"/></svg>